<?xml version="1.0" standalone="no"?>
<!DOCTYPE svg PUBLIC "-//W3C//DTD SVG 20010904//EN"
 "http://www.w3.org/TR/2001/REC-SVG-20010904/DTD/svg10.dtd">
<svg version="1.0" xmlns="http://www.w3.org/2000/svg"
 width="582.000000pt" height="310.000000pt" viewBox="0 0 582.000000 310.000000"
 preserveAspectRatio="xMidYMid meet">

<g transform="translate(0.000000,310.000000) scale(0.100000,-0.100000)"
fill="#000000" stroke="none">
<path d="M0 1550 l0 -1550 2910 0 2910 0 0 1550 0 1550 -2910 0 -2910 0 0
-1550z m2395 1178 c-7 -25 -18 -53 -37 -93 l-11 -25 -844 0 c-743 0 -843 -2
-843 -15 0 -8 5 -15 10 -15 6 0 10 -9 10 -20 0 -11 5 -20 10 -20 6 0 10 -9 10
-19 0 -11 4 -22 9 -26 13 -7 41 -64 41 -82 0 -7 5 -13 10 -13 6 0 10 -11 10
-25 0 -14 5 -25 10 -25 6 0 10 -11 10 -24 0 -14 4 -27 9 -31 13 -7 41 -64 41
-82 0 -7 5 -13 10 -13 6 0 10 -7 10 -15 0 -8 5 -24 10 -35 6 -11 15 -29 20
-40 6 -11 10 -26 10 -34 0 -7 7 -19 15 -26 8 -7 15 -21 15 -31 0 -11 5 -19 10
-19 6 0 10 -7 10 -15 0 -8 5 -24 10 -35 6 -11 15 -29 20 -40 6 -11 10 -29 10
-40 0 -11 4 -20 8 -20 9 0 42 -70 42 -88 0 -7 5 -12 10 -12 6 0 10 -9 10 -19
0 -11 5 -23 10 -26 6 -3 10 -17 10 -31 0 -13 5 -24 10 -24 6 0 10 -11 10 -25
0 -14 4 -25 8 -25 10 0 42 -71 42 -93 0 -10 5 -17 10 -17 6 0 10 -11 10 -25 0
-14 5 -25 10 -25 6 0 10 -11 10 -24 0 -14 4 -28 10 -31 5 -3 17 -23 26 -43 8
-20 19 -44 23 -52 4 -8 14 -36 22 -62 7 -27 17 -48 21 -48 4 0 8 -8 8 -19 0
-10 7 -24 15 -31 8 -7 15 -23 15 -36 0 -13 5 -24 10 -24 6 0 10 -11 10 -25 0
-14 5 -25 10 -25 6 0 10 -11 10 -25 0 -14 5 -25 10 -25 6 0 10 -13 10 -30 0
-16 4 -30 9 -30 12 0 41 -57 41 -81 0 -10 5 -21 10 -24 6 -3 10 -15 10 -25 0
-10 4 -21 9 -24 16 -10 41 5 41 25 0 11 5 28 10 39 6 11 15 29 20 40 6 11 10
27 10 35 0 8 5 15 10 15 6 0 10 6 10 12 0 11 30 79 61 140 5 10 9 25 9 33 0 8
5 15 10 15 6 0 10 6 10 13 0 8 7 28 16 45 15 32 16 32 94 32 78 0 104 -10 81
-33 -6 -6 -11 -19 -11 -29 0 -10 -4 -18 -9 -18 -5 0 -12 -11 -15 -25 -4 -14
-11 -25 -16 -25 -6 0 -10 -9 -10 -20 0 -11 -4 -29 -10 -40 -5 -11 -14 -29 -20
-40 -5 -11 -10 -27 -10 -35 0 -8 -4 -15 -10 -15 -5 0 -10 -9 -10 -20 0 -11 -7
-23 -15 -26 -8 -4 -15 -15 -15 -25 0 -11 -4 -28 -10 -39 -5 -11 -15 -29 -20
-40 -5 -11 -10 -27 -10 -35 0 -8 -4 -15 -10 -15 -5 0 -10 -11 -10 -24 0 -13
-3 -26 -7 -28 -13 -5 -43 -68 -43 -89 0 -10 -4 -19 -10 -19 -5 0 -10 -9 -10
-19 0 -11 -4 -23 -10 -26 -5 -3 -10 -15 -10 -26 0 -10 -4 -19 -10 -19 -5 0
-10 -8 -10 -18 0 -23 -32 -62 -51 -62 -14 0 -39 43 -39 67 0 7 -4 13 -10 13
-5 0 -10 11 -10 24 0 13 -3 26 -7 28 -13 5 -43 68 -43 89 0 10 -4 19 -10 19
-5 0 -10 9 -10 19 0 11 -4 23 -10 26 -5 3 -10 15 -10 26 0 10 -4 19 -10 19 -5
0 -10 11 -10 24 0 13 -7 29 -15 36 -8 7 -15 21 -15 31 0 11 -4 19 -10 19 -5 0
-10 7 -10 15 0 8 -5 25 -12 38 -24 48 -28 57 -28 76 0 11 -3 21 -7 23 -5 2
-21 30 -37 63 -15 33 -32 68 -37 77 -5 10 -9 27 -9 38 0 11 -4 20 -10 20 -5 0
-10 11 -10 25 0 14 -4 25 -8 25 -5 0 -16 19 -26 42 -9 24 -21 51 -27 60 -5 10
-9 25 -9 33 0 8 -4 15 -10 15 -5 0 -10 11 -10 25 0 14 -4 25 -10 25 -5 0 -10
8 -10 19 0 10 -7 24 -15 31 -8 7 -15 19 -15 26 0 8 -4 23 -10 34 -5 11 -14 29
-20 40 -5 11 -10 27 -10 35 0 8 -4 15 -10 15 -5 0 -10 9 -10 21 0 11 -7 27
-15 35 -8 9 -15 24 -15 35 0 10 -4 19 -10 19 -5 0 -10 9 -10 19 0 11 -4 23
-10 26 -5 3 -10 15 -10 26 0 10 -4 19 -10 19 -5 0 -10 9 -10 19 0 10 -16 52
-36 92 -20 41 -41 85 -46 99 -6 14 -14 33 -19 42 -5 10 -9 26 -9 37 0 10 -7
21 -15 25 -8 3 -15 15 -15 26 0 11 -4 20 -10 20 -5 0 -10 9 -10 19 0 11 -4 23
-10 26 -5 3 -10 17 -10 31 0 13 -4 24 -10 24 -5 0 -10 11 -10 25 0 14 -4 25
-10 25 -5 0 -10 8 -10 19 0 10 -6 24 -13 30 -8 6 -20 30 -27 53 -7 24 -17 47
-22 53 -4 5 -8 17 -8 27 0 10 -4 18 -10 18 -5 0 -10 11 -10 25 0 14 -4 25 -8
25 -12 0 -43 76 -49 121 l-6 39 977 0 977 0 -6 -22z m-176 -455 c10 -10 24
-39 32 -65 7 -27 17 -48 21 -48 4 0 8 -11 8 -25 0 -14 5 -25 10 -25 6 0 10
-11 10 -24 0 -13 7 -29 15 -36 8 -7 15 -21 15 -31 0 -11 5 -19 10 -19 6 0 10
-11 10 -24 0 -14 5 -28 10 -31 6 -3 10 -17 10 -31 0 -13 5 -24 10 -24 6 0 10
-8 10 -17 0 -10 7 -27 15 -37 14 -19 15 -19 15 6 0 15 5 30 10 33 6 3 10 17
10 31 0 13 5 24 10 24 6 0 10 11 10 25 0 14 5 25 10 25 6 0 10 9 10 19 0 11 7
26 15 35 8 8 15 24 15 35 0 12 5 21 10 21 6 0 10 11 10 25 0 14 5 25 10 25 6
0 10 9 10 20 0 11 4 28 9 38 5 9 17 34 27 55 10 20 24 37 31 37 17 0 43 -58
43 -97 0 -18 5 -33 10 -33 6 0 10 -18 10 -39 0 -22 5 -43 10 -46 6 -3 10 -21
10 -38 0 -18 7 -41 15 -51 8 -11 15 -32 15 -47 0 -15 5 -31 10 -34 6 -3 10
-24 10 -46 0 -21 5 -39 10 -39 6 0 10 -18 10 -39 0 -22 5 -43 10 -46 6 -3 10
-24 10 -45 0 -21 5 -40 11 -42 6 -2 12 -22 13 -43 l1 -40 -65 0 -65 0 -8 40
c-5 22 -11 57 -14 78 -3 20 -9 40 -14 43 -5 3 -9 23 -9 45 0 21 -4 39 -10 39
-5 0 -10 20 -10 45 0 25 -4 45 -10 45 -5 0 -11 8 -11 18 -1 16 -2 16 -6 0 -2
-10 -9 -18 -14 -18 -5 0 -9 -11 -9 -25 0 -14 -4 -25 -8 -25 -4 0 -14 -20 -21
-46 -7 -25 -20 -51 -27 -59 -8 -7 -14 -23 -14 -34 0 -12 -4 -21 -10 -21 -5 0
-10 -9 -10 -20 0 -11 -5 -30 -12 -43 -24 -47 -28 -57 -28 -73 0 -11 -8 -14
-26 -12 -27 3 -32 9 -52 58 -17 44 -34 84 -43 102 -5 10 -9 26 -9 37 0 10 -7
21 -15 25 -8 3 -15 14 -15 25 0 11 -4 23 -10 26 -5 3 -10 17 -10 31 0 13 -4
24 -10 24 -5 0 -10 11 -10 25 0 14 -4 25 -10 25 -5 0 -12 -11 -16 -25 -3 -14
-10 -25 -15 -25 -5 0 -9 -18 -9 -40 0 -22 -4 -40 -10 -40 -5 0 -10 -18 -10
-39 0 -22 -4 -43 -10 -46 -5 -3 -10 -21 -10 -39 0 -17 -4 -36 -9 -42 -5 -5
-11 -20 -13 -34 -3 -24 -6 -25 -68 -25 l-65 0 2 30 c1 16 7 31 13 33 5 2 10
21 10 43 0 21 5 39 10 39 6 0 10 20 10 45 0 25 5 45 10 45 6 0 10 18 10 39 0
22 5 43 10 46 6 3 10 19 10 34 0 15 7 36 15 47 8 10 15 33 15 51 0 17 5 35 10
38 6 3 10 21 10 40 0 19 5 37 10 40 6 3 10 24 10 46 0 21 5 39 10 39 6 0 10
13 10 28 0 45 18 54 49 25z m1112 7 c10 -6 19 -19 19 -30 0 -10 5 -22 10 -25
6 -3 10 -15 10 -26 0 -10 5 -19 10 -19 6 0 10 -6 10 -12 0 -11 19 -56 61 -140
5 -10 9 -25 9 -33 0 -8 5 -15 10 -15 6 0 10 -9 10 -19 0 -11 5 -23 10 -26 6
-3 10 -15 10 -26 0 -10 4 -19 8 -19 5 0 16 -19 26 -42 9 -24 21 -51 27 -60 5
-10 9 -25 9 -33 0 -8 5 -15 10 -15 6 0 10 -11 10 -24 0 -13 3 -26 8 -28 13 -5
59 -103 54 -116 -2 -8 -27 -12 -73 -12 -67 0 -69 1 -69 25 0 14 -4 25 -8 25
-7 0 -29 45 -46 93 -5 16 -19 17 -137 15 -106 -2 -133 -6 -139 -18 -4 -8 -12
-25 -18 -37 -7 -13 -12 -30 -12 -38 0 -8 -4 -15 -9 -15 -5 0 -11 -10 -13 -22
-3 -21 -9 -23 -67 -26 -35 -2 -68 1 -73 6 -10 10 10 72 23 72 5 0 9 11 9 25 0
14 5 25 10 25 6 0 10 9 10 19 0 11 5 23 10 26 6 3 10 15 10 26 0 10 5 19 10
19 6 0 10 9 10 19 0 11 7 26 15 35 8 8 15 24 15 35 0 12 5 21 10 21 6 0 10 9
10 19 0 11 5 23 10 26 6 3 10 15 10 26 0 10 5 19 10 19 6 0 10 9 10 19 0 11 4
22 9 26 5 3 12 19 16 35 4 17 11 30 16 30 5 0 9 9 9 19 0 11 5 23 10 26 6 3
10 15 10 26 0 10 5 19 10 19 6 0 10 9 10 19 0 11 5 23 10 26 6 3 10 14 10 24
0 15 17 41 28 41 2 0 12 -5 23 -10z m839 0 c0 -5 11 -10 24 -10 52 0 109 -47
109 -90 0 -28 -22 -60 -42 -60 -6 0 -11 -4 -11 -9 0 -16 -41 -20 -47 -5 -3 8
-11 14 -19 14 -8 0 -14 5 -14 10 0 6 -9 10 -20 10 -11 0 -20 5 -20 10 0 6 -16
10 -35 10 -19 0 -35 -4 -35 -10 0 -5 -6 -10 -13 -10 -7 0 -18 -10 -26 -21 -17
-29 0 -61 45 -85 19 -10 34 -22 34 -26 0 -5 8 -8 18 -8 48 0 182 -96 182 -131
0 -6 7 -17 15 -25 11 -11 15 -37 15 -94 0 -57 -4 -83 -15 -94 -8 -8 -15 -19
-15 -25 0 -15 -72 -71 -92 -71 -10 0 -18 -4 -18 -10 0 -6 -38 -10 -95 -10 -57
0 -95 4 -95 10 0 6 -9 10 -20 10 -23 0 -120 93 -120 115 0 8 -4 15 -10 15 -5
0 -10 16 -10 35 0 31 3 35 25 35 14 0 25 5 25 10 0 6 16 10 36 10 38 0 63 -20
64 -51 0 -19 72 -59 106 -59 24 0 57 15 81 37 22 19 16 75 -11 103 -38 40 -65
60 -81 60 -14 0 -37 10 -75 32 -8 5 -23 11 -32 14 -10 4 -18 10 -18 15 0 5 -6
9 -12 9 -22 1 -66 75 -68 116 -7 102 -2 119 45 168 30 30 54 46 70 46 14 0 25
5 25 10 0 6 32 10 75 10 43 0 75 -4 75 -10z m870 0 c0 -5 18 -10 40 -10 22 0
40 -4 40 -10 0 -5 9 -10 20 -10 18 0 20 -7 20 -76 0 -69 -2 -75 -17 -69 -10 4
-28 10 -40 12 -13 3 -23 9 -23 14 0 5 -18 9 -39 9 -22 0 -43 5 -46 10 -3 6
-26 10 -50 10 -24 0 -47 -4 -50 -10 -3 -5 -19 -10 -36 -10 -16 0 -29 -4 -29
-10 0 -5 -8 -10 -17 -10 -20 -1 -106 -100 -111 -128 -2 -9 -8 -21 -13 -27 -12
-12 -11 -112 1 -120 6 -3 10 -13 10 -21 0 -15 9 -28 46 -67 41 -43 74 -67 93
-67 11 0 23 -4 26 -10 3 -5 44 -10 91 -10 49 0 84 4 84 10 0 6 9 10 19 10 11
0 23 5 26 10 3 6 22 10 41 10 l34 0 0 -61 c0 -67 -14 -88 -57 -89 -13 0 -23
-4 -23 -10 0 -14 -242 -13 -277 1 -79 33 -97 44 -147 94 -30 30 -57 64 -61 75
-3 11 -11 20 -16 20 -5 0 -9 11 -9 24 0 14 -4 28 -10 31 -6 4 -10 53 -10 116
0 66 4 109 10 109 6 0 10 11 10 23 0 31 68 133 100 149 14 7 30 18 35 25 18
21 85 53 110 53 14 0 25 5 25 10 0 6 40 10 100 10 60 0 100 -4 100 -10z
m-3740 -29 c0 -11 4 -23 10 -26 5 -3 17 -23 26 -43 8 -20 20 -45 25 -54 5 -10
9 -27 9 -38 0 -11 5 -20 10 -20 6 0 10 -11 10 -25 0 -14 3 -25 8 -25 10 0 39
-56 54 -107 7 -24 16 -43 20 -43 5 0 8 -12 8 -26 0 -23 2 -24 15 -10 8 8 15
24 15 35 0 12 5 21 10 21 6 0 10 9 10 19 0 11 5 23 10 26 6 3 10 15 10 26 0
10 5 19 10 19 6 0 10 6 10 12 0 11 30 79 61 140 5 10 9 25 9 33 0 8 5 15 10
15 6 0 10 6 10 13 0 8 7 28 16 45 15 31 18 32 75 32 83 0 86 -10 28 -122 -5
-10 -9 -25 -9 -33 0 -8 -4 -15 -10 -15 -5 0 -10 -11 -10 -25 0 -14 -4 -25 -10
-25 -5 0 -10 -8 -10 -19 0 -10 -7 -24 -15 -31 -8 -7 -15 -21 -15 -31 0 -10 -4
-21 -10 -24 -5 -3 -10 -15 -10 -26 0 -10 -4 -19 -10 -19 -5 0 -10 -11 -10 -25
0 -14 -4 -25 -10 -25 -5 0 -10 -7 -10 -14 0 -8 -11 -36 -25 -62 -14 -26 -25
-53 -25 -60 0 -8 -4 -14 -10 -14 -5 0 -10 -11 -10 -25 0 -14 -4 -25 -10 -25
-5 0 -10 -7 -10 -15 0 -8 -5 -25 -12 -38 -6 -12 -14 -29 -18 -37 -4 -8 -19
-16 -34 -18 -20 -3 -26 1 -26 17 0 11 -4 23 -10 26 -5 3 -10 15 -10 26 0 10
-4 19 -10 19 -5 0 -10 11 -10 25 0 14 -4 25 -9 25 -5 0 -12 14 -16 30 -4 17
-11 30 -16 30 -5 0 -9 9 -9 19 0 11 -4 23 -10 26 -5 3 -10 15 -10 26 0 10 -4
19 -10 19 -5 0 -10 11 -10 24 0 14 -4 28 -10 31 -5 3 -10 17 -10 31 0 13 -4
24 -10 24 -5 0 -16 17 -25 38 -9 20 -21 45 -26 54 -5 10 -9 27 -9 38 0 11 -4
20 -10 20 -5 0 -10 11 -10 24 0 13 -3 26 -7 28 -16 6 -43 70 -43 99 l0 29 65
0 c58 0 65 -2 65 -19z m832 -798 c12 -11 18 -30 18 -62 0 -52 -4 -60 -42 -84
-39 -25 -63 -21 -92 14 -34 40 -34 80 2 119 31 34 84 41 114 13z m106 -40 c3
-45 6 -53 23 -53 17 0 20 -6 17 -32 -3 -32 -4 -33 -53 -33 l-50 0 -3 74 c-4
92 0 103 35 99 26 -3 28 -7 31 -55z m165 46 c29 -15 56 -50 57 -71 0 -49 -61
-98 -123 -98 l-27 0 0 90 0 90 36 0 c19 0 45 -5 57 -11z m248 -10 c16 -11 29
-27 29 -35 0 -14 2 -14 15 0 8 8 15 18 15 22 0 4 8 13 18 20 34 26 112 11 112
-21 0 -24 18 -17 22 8 4 30 65 38 85 11 12 -17 14 -17 26 0 8 11 23 17 38 14
23 -3 24 -5 24 -88 0 -75 -2 -85 -19 -88 -10 -2 -29 2 -42 9 -20 10 -29 10
-50 -1 -31 -17 -55 -5 -65 31 -5 21 -7 22 -14 7 -4 -10 -13 -18 -20 -18 -7 0
-18 -7 -25 -15 -7 -8 -22 -15 -35 -15 -21 0 -66 41 -78 71 -4 11 -6 10 -6 -3
-1 -24 -62 -68 -94 -68 -54 0 -57 6 -57 96 l0 84 46 0 c30 0 56 -7 75 -21z
m477 -49 c4 -92 -2 -112 -36 -108 -27 3 -27 4 -30 91 l-3 88 33 -3 33 -3 3
-65z m85 58 c4 -10 7 -10 18 0 15 14 55 16 63 3 9 -13 -11 -152 -23 -164 -8
-8 -17 -4 -33 13 l-21 23 -9 -22 c-5 -16 -15 -21 -30 -19 -21 3 -23 9 -28 81
-3 42 -3 82 -2 87 5 14 60 12 65 -2z m166 3 c12 -8 12 -12 2 -25 -9 -11 -12
-36 -9 -76 4 -56 3 -61 -18 -66 -38 -10 -44 3 -44 92 l0 84 28 0 c15 0 33 -4
41 -9z m153 -8 c19 -17 26 -96 10 -119 -16 -23 -70 -47 -94 -41 -56 14 -78
136 -28 152 11 4 20 11 20 16 0 16 72 10 92 -8z m186 -1 c3 -9 0 -18 -6 -20
-8 -2 -12 -27 -12 -67 0 -68 -14 -91 -36 -60 -13 18 -15 18 -33 1 -11 -10 -28
-16 -38 -14 -15 3 -19 16 -24 83 -3 44 -4 83 -2 87 2 3 35 6 74 6 54 -1 72 -4
77 -16z m310 6 c8 -7 12 -7 12 1 0 6 14 11 30 11 l30 0 0 -84 c0 -47 -4 -88
-10 -91 -14 -9 -50 13 -50 30 0 8 -4 15 -9 15 -5 0 -7 -9 -4 -20 4 -14 -1 -21
-22 -26 -33 -8 -67 18 -47 38 14 14 16 98 2 98 -5 0 -10 -16 -10 -37 0 -48
-41 -103 -77 -103 -15 0 -37 10 -50 22 -20 18 -23 31 -23 89 l0 67 108 0 c59
0 113 -5 120 -10z m160 -75 c-3 -75 -6 -88 -21 -91 -34 -7 -42 12 -39 97 l4
81 29 0 30 0 -3 -87z m90 59 c3 -19 6 -21 18 -11 8 6 14 17 14 23 0 16 158 20
177 5 15 -13 18 -49 3 -49 -5 0 -10 -9 -10 -19 0 -11 5 -23 10 -26 14 -9 13
-48 -2 -63 -16 -16 -93 -15 -106 1 -6 7 -12 37 -14 67 -3 40 -6 50 -12 35 -4
-11 -12 -31 -18 -45 -18 -45 -24 -54 -42 -64 -13 -9 -21 -6 -36 14 -11 14 -20
35 -20 48 0 12 -4 22 -10 22 -5 0 -10 11 -10 24 0 14 -5 28 -10 31 -19 12 11
36 39 33 18 -2 27 -10 29 -26z m342 11 c15 -15 18 -31 17 -88 l-2 -70 -60 0
-60 0 -3 88 -3 87 46 0 c30 0 52 -6 65 -17z m148 -55 c2 -75 -14 -108 -54
-108 -49 0 -54 8 -54 84 0 85 9 98 65 94 l40 -3 3 -67z m242 41 c0 -22 -5 -32
-20 -36 -15 -4 -20 -15 -22 -57 -3 -47 -5 -51 -28 -51 -23 0 -25 4 -28 53 -2
28 -7 52 -12 52 -4 0 -15 3 -24 6 -13 5 -16 -3 -16 -49 0 -47 -3 -57 -20 -62
-11 -3 -28 -4 -39 0 -16 5 -18 14 -14 78 3 39 6 77 8 83 2 7 41 12 109 13
l106 1 0 -31z m89 14 c10 -17 10 -17 11 0 0 11 8 17 25 17 22 0 25 -4 25 -34
0 -19 -7 -41 -15 -50 -8 -8 -15 -27 -15 -43 0 -39 -13 -55 -41 -51 -20 2 -25
10 -27 43 -2 22 -7 42 -10 45 -14 10 -32 50 -32 70 0 16 7 20 35 20 22 0 38
-6 44 -17z"/>
<path d="M3300 1985 c0 -8 -4 -23 -9 -33 -11 -21 -27 -62 -35 -84 -5 -16 2
-18 59 -18 57 0 64 2 59 18 -8 22 -24 63 -35 84 -5 10 -9 25 -9 33 0 8 -7 15
-15 15 -8 0 -15 -7 -15 -15z"/>
<path d="M2060 1380 c0 -11 5 -20 10 -20 6 0 10 9 10 20 0 11 -4 20 -10 20 -5
0 -10 -9 -10 -20z"/>
<path d="M2590 1380 c0 -11 7 -20 15 -20 8 0 15 9 15 20 0 11 -7 20 -15 20 -8
0 -15 -9 -15 -20z"/>
<path d="M2756 1391 c-3 -5 1 -14 8 -20 16 -13 32 2 21 19 -8 12 -22 13 -29 1z"/>
<path d="M3460 1380 c0 -11 5 -20 10 -20 6 0 10 9 10 20 0 11 -4 20 -10 20 -5
0 -10 -9 -10 -20z"/>
<path d="M3860 1395 c0 -19 5 -35 10 -35 6 0 10 16 10 35 0 19 -4 35 -10 35
-5 0 -10 -16 -10 -35z"/>
</g>
</svg>
